<?xml version="1.0" encoding="utf-8"?>
<!-- Svg Vector Icons : http://www.sfont.cn -->
<!DOCTYPE svg PUBLIC "-//W3C//DTD SVG 1.1//EN" "http://www.w3.org/Graphics/SVG/1.1/DTD/svg11.dtd">
<svg version="1.1" xmlns="http://www.w3.org/2000/svg" xmlns:xlink="http://www.w3.org/1999/xlink" x="0px" y="0px" viewBox="0 0 1000 1000" enable-background="new 0 0 1000 1000" xml:space="preserve">
<metadata> Svg Vector Icons : http://www.sfont.cn </metadata>
<g><path d="M475.3,941.2l-48.5-84.1c-16.9-29.3-6.9-66.7,22.4-83.6l10.7-6.2c-0.7-6.7-1-13.5-1-20.2c0-6.7,0.3-13.4,1-20.2l-10.7-6.1c-14-8.1-24.3-21.6-28.5-37.2c-4.2-15.7-2-32.4,6.1-46.5l48.5-84.1c8.1-14,21.6-24.3,37.2-28.5c5.2-1.4,10.5-2.1,15.9-2.1c10.7,0,21.3,2.8,30.6,8.2l10.8,6.2c11-7.5,22.7-14.1,34.8-19.8v-12.8c0-1,0.6-1.9,0.6-2.9c-32.4-24.6-73-43.7-125.4-53.8v-30.3c72.2-34.5,122.5-107.6,122.5-192.9C602.3,106,506.3,10,387.9,10c-118.4,0-214.4,96-214.4,214.4c0,85.4,50.3,158.5,122.5,192.9v30.3C51.9,494.4,51,730.8,51,867.5c0,106.7,466.7,103.7,461.5,102.3C496.8,965.6,483.4,955.3,475.3,941.2z"/><path d="M908.7,747.1c0-18-3.2-35-7.8-51.6l48.1-27.7l-48.6-84.1l-47.5,27.4c-24.3-24.7-55.2-42.4-89.9-51.4v-55.4h-97.1v55.4c-34.6,8.9-65.6,26.6-90,51.4l-47.5-27.4l-48.6,84.1l48.1,27.7c-4.5,16.6-7.8,33.6-7.8,51.6c0,18,3.2,35,7.8,51.6l-48.1,27.8l48.6,84.1l47.5-27.4c24.3,24.7,55.3,42.4,90,51.4V990l97.1-0.1v-55.3c34.6-8.9,65.7-26.7,90-51.5l47.5,27.4l48.5-84.1l-48-27.7C905.4,782.2,908.7,765.2,908.7,747.1z M714.4,892.9c-80.5,0-145.7-65.2-145.7-145.7c0-80.4,65.2-145.7,145.7-145.7s145.7,65.2,145.7,145.7C860.1,827.7,794.9,892.9,714.4,892.9z"/></g>
</svg>